# xmcd CD database file
#
# Track frame offsets:
#	150
#	18622
#	36717
#	56890
#	78972
#	99695
#	119772
#	142222
#	163897
#	185357
#	202810
#	212612
#
# Disc length: 3655 seconds
#
# Revision: 0
# Processed by: cddbd v1.5PL3 Copyright (c) Steve Scherf et al.
# Submitted via: CDex 1.51
#
DISCID=b90e450c
DTITLE=サイクルズ - うたよひびけ
DYEAR=1999
DGENRE=New Age
TTITLE0=まなざし
TTITLE1=マイペース
TTITLE2=駄目な僕
TTITLE3=悪いけど
TTITLE4=滑走路
TTITLE5=自力本願
TTITLE6=大事なこと
TTITLE7=辛い日々
TTITLE8=限られた力
TTITLE9=今じゃない まだ早い ような
TTITLE10=夜風
TTITLE11=シークレットトラック
EXTD=YEAR: 1999
EXTT0=
EXTT1=
EXTT2=
EXTT3=
EXTT4=
EXTT5=
EXTT6=
EXTT7=
EXTT8=
EXTT9=
EXTT10=
EXTT11=
PLAYORDER=
